
      <svg data-logo="logo" xmlns="http://www.w3.org/2000/svg" viewBox="0 0 194 42">
        <g id="logogram" transform="translate(0, 1) rotate(0) "><path d="M10 15.1533L56.0254 27.3643C57.7788 27.8295 59 29.4164 59 31.2305V40H49V35.8457L29.501 30.6729L10 35.8457V40H0V31.2305C4.53996e-06 29.4164 1.22118 27.8295 2.97461 27.3643L10.001 25.499L2.97461 23.6357C1.22116 23.1706 3.02567e-05 21.5836 0 19.7695V14C0 11.7909 1.79086 10 4 10H10V15.1533Z" fill="#0BDC85"/><path d="M55 10C57.2091 10 59 11.7909 59 14V20H49V10H55Z" fill="#0BDC85"/><path d="M45 0C47.2091 0 49 1.79086 49 4V10H10V4C10 1.79086 11.7909 2.81866e-08 14 0H45Z" fill="#0BDC85"/></g>
        <g id="logotype" transform="translate(65, 8)"><path fill="#111111" d="M19.06 26L8.31 26L8.31 0.54L18.41 0.54Q21.21 0.54 23.08 1.38Q24.95 2.23 25.88 3.70Q26.82 5.17 26.82 7.08L26.82 7.08Q26.82 8.59 26.22 9.70Q25.62 10.82 24.59 11.53Q23.55 12.24 22.24 12.55L22.24 12.55L22.24 12.81Q23.67 12.86 24.94 13.62Q26.22 14.38 27.01 15.74Q27.81 17.10 27.81 18.99L27.81 18.99Q27.81 20.99 26.82 22.58Q25.82 24.17 23.88 25.09Q21.94 26 19.06 26L19.06 26ZM13.52 14.81L13.52 21.71L18.03 21.71Q20.32 21.71 21.38 20.82Q22.44 19.93 22.44 18.50L22.44 18.50Q22.44 17.40 21.92 16.57Q21.40 15.75 20.44 15.28Q19.48 14.81 18.17 14.81L18.17 14.81L13.52 14.81ZM13.52 4.79L13.52 11.23L17.64 11.23Q18.75 11.23 19.64 10.83Q20.53 10.43 21.03 9.69Q21.53 8.94 21.53 7.92L21.53 7.92Q21.53 6.53 20.55 5.66Q19.57 4.79 17.74 4.79L17.74 4.79L13.52 4.79ZM37.70 26.38L37.70 26.38Q34.78 26.38 32.66 25.18Q30.54 23.98 29.40 21.78Q28.27 19.57 28.27 16.55L28.27 16.55Q28.27 13.59 29.39 11.37Q30.52 9.15 32.59 7.90Q34.66 6.65 37.44 6.65L37.44 6.65Q39.32 6.65 40.95 7.25Q42.57 7.85 43.80 9.06Q45.03 10.26 45.72 12.07Q46.42 13.88 46.42 16.34L46.42 16.34L46.42 17.78L30.37 17.78L30.37 14.57L43.90 14.57L41.51 15.42Q41.51 13.93 41.06 12.83Q40.60 11.73 39.71 11.12Q38.81 10.52 37.48 10.52L37.48 10.52Q36.16 10.52 35.23 11.13Q34.30 11.75 33.82 12.80Q33.34 13.85 33.34 15.20L33.34 15.20L33.34 17.47Q33.34 19.13 33.90 20.26Q34.45 21.39 35.45 21.95Q36.45 22.51 37.79 22.51L37.79 22.51Q38.69 22.51 39.43 22.26Q40.16 22.00 40.68 21.50Q41.20 20.99 41.48 20.26L41.48 20.26L46.12 21.13Q45.66 22.70 44.52 23.89Q43.37 25.08 41.66 25.73Q39.94 26.38 37.70 26.38ZM56.27 26.38L56.27 26.38Q53.35 26.38 51.23 25.18Q49.11 23.98 47.98 21.78Q46.84 19.57 46.84 16.55L46.84 16.55Q46.84 13.59 47.97 11.37Q49.10 9.15 51.16 7.90Q53.23 6.65 56.02 6.65L56.02 6.65Q57.90 6.65 59.52 7.25Q61.14 7.85 62.38 9.06Q63.61 10.26 64.30 12.07Q64.99 13.88 64.99 16.34L64.99 16.34L64.99 17.78L48.94 17.78L48.94 14.57L62.48 14.57L60.09 15.42Q60.09 13.93 59.63 12.83Q59.18 11.73 58.28 11.12Q57.39 10.52 56.05 10.52L56.05 10.52Q54.74 10.52 53.80 11.13Q52.87 11.75 52.39 12.80Q51.92 13.85 51.92 15.20L51.92 15.20L51.92 17.47Q51.92 19.13 52.47 20.26Q53.03 21.39 54.03 21.95Q55.03 22.51 56.36 22.51L56.36 22.51Q57.27 22.51 58.00 22.26Q58.74 22.00 59.26 21.50Q59.78 20.99 60.05 20.26L60.05 20.26L64.70 21.13Q64.24 22.70 63.09 23.89Q61.95 25.08 60.23 25.73Q58.51 26.38 56.27 26.38ZM71.35 26L66.22 26L66.22 6.89L71.17 6.89L71.17 10.23L71.38 10.23Q71.91 8.45 73.15 7.54Q74.39 6.64 75.99 6.64L75.99 6.64Q76.39 6.64 76.84 6.68Q77.29 6.72 77.65 6.81L77.65 6.81L77.65 11.39Q77.31 11.27 76.66 11.20Q76.01 11.13 75.43 11.13L75.43 11.13Q74.27 11.13 73.33 11.64Q72.39 12.14 71.87 13.04Q71.35 13.93 71.35 15.13L71.35 15.13L71.35 26ZM89.07 26L78.32 26L78.32 0.54L88.42 0.54Q91.22 0.54 93.09 1.38Q94.96 2.23 95.89 3.70Q96.82 5.17 96.82 7.08L96.82 7.08Q96.82 8.59 96.23 9.70Q95.63 10.82 94.59 11.53Q93.56 12.24 92.24 12.55L92.24 12.55L92.24 12.81Q93.68 12.86 94.95 13.62Q96.23 14.38 97.02 15.74Q97.82 17.10 97.82 18.99L97.82 18.99Q97.82 20.99 96.82 22.58Q95.83 24.17 93.89 25.09Q91.95 26 89.07 26L89.07 26ZM83.53 14.81L83.53 21.71L88.04 21.71Q90.33 21.71 91.39 20.82Q92.45 19.93 92.45 18.50L92.45 18.50Q92.45 17.40 91.93 16.57Q91.41 15.75 90.45 15.28Q89.49 14.81 88.18 14.81L88.18 14.81L83.53 14.81ZM83.53 4.79L83.53 11.23L87.65 11.23Q88.76 11.23 89.65 10.83Q90.54 10.43 91.04 9.69Q91.54 8.94 91.54 7.92L91.54 7.92Q91.54 6.53 90.56 5.66Q89.58 4.79 87.75 4.79L87.75 4.79L83.53 4.79ZM107.62 26.38L107.62 26.38Q104.75 26.38 102.65 25.14Q100.55 23.90 99.41 21.68Q98.27 19.47 98.27 16.53L98.27 16.53Q98.27 13.56 99.41 11.35Q100.55 9.13 102.65 7.89Q104.75 6.65 107.62 6.65L107.62 6.65Q110.51 6.65 112.60 7.89Q114.70 9.13 115.83 11.35Q116.97 13.56 116.97 16.53L116.97 16.53Q116.97 19.47 115.83 21.68Q114.70 23.90 112.60 25.14Q110.51 26.38 107.62 26.38ZM107.62 22.34L107.62 22.34Q108.99 22.34 109.91 21.58Q110.84 20.82 111.30 19.50Q111.76 18.17 111.76 16.52L111.76 16.52Q111.76 14.82 111.30 13.51Q110.84 12.19 109.91 11.44Q108.99 10.69 107.62 10.69L107.62 10.69Q106.26 10.69 105.34 11.44Q104.43 12.19 103.97 13.51Q103.50 14.82 103.50 16.52L103.50 16.52Q103.50 18.17 103.97 19.50Q104.43 20.82 105.34 21.58Q106.26 22.34 107.62 22.34ZM116.42 6.89L127.75 6.89L127.75 10.81L116.42 10.81L116.42 6.89ZM119.05 20.86L119.05 2.35L124.18 2.35L124.18 20.41Q124.18 21.32 124.58 21.75Q124.98 22.19 125.92 22.19L125.92 22.19Q126.21 22.19 126.74 22.11Q127.27 22.04 127.55 21.97L127.55 21.97L128.28 25.81Q127.43 26.07 126.58 26.17Q125.74 26.27 124.97 26.27L124.97 26.27Q122.10 26.27 120.58 24.87Q119.05 23.47 119.05 20.86L119.05 20.86Z"/></g>
        
      </svg>
    